# xmcd CD database file
#
# Track frame offsets:
#	150
#	23016
#	40663
#	64071
#	82993
#	100743
#	121617
#	148744
#	174134
#	210412
#	250667
#	284915
#	301992
#
# Disc length: 4303 seconds
#
# Revision: 1
# Processed by: cddbd v1.5.2PL0 Copyright (c) Steve Scherf et al.
# Submitted via: CDex 1.51
#
DISCID=a310cd0d
DTITLE=Brandon Rhyder - Live
DYEAR=2007
DGENRE=Country
TTITLE0=Man of Conviction
TTITLE1=One Step Closer
TTITLE2=Let the Good Times Roll
TTITLE3=No One Stays in Love Alone
TTITLE4=My Son
TTITLE5=I Can't Hang On
TTITLE6=Black Cat
TTITLE7=Do You Remember
TTITLE8=Back Roads
TTITLE9=Have I Waited Too Long
TTITLE10=Freeze Frame Time
TTITLE11=Before I Knew Your Name (Studio Track)
TTITLE12=Home Again (Studio Track)
EXTD=YEAR: 2007
EXTT0=
EXTT1=
EXTT2=
EXTT3=
EXTT4=
EXTT5=
EXTT6=
EXTT7=
EXTT8=
EXTT9=
EXTT10=
EXTT11=
EXTT12=
PLAYORDER=
